<svg width="107" height="100" viewBox="0 0 107 100" fill="none" xmlns="http://www.w3.org/2000/svg">
<path d="M21.1291 83.948L14.1104 5.19482L91.2604 5.19482L84.2322 83.9354L52.6385 92.6948L21.1291 83.948Z" fill="#1572B6"/>
<path d="M52.6855 86.0009L78.2168 78.9228L84.223 11.6353L52.6855 11.6353L52.6855 86.0009Z" fill="#33A9DC"/>
<path d="M53.335 40.5729H66.1162L66.9975 30.6823L53.335 30.6823V21.0229L77.5537 21.0229L77.3225 23.6136L74.9506 50.2323L53.335 50.2323V40.5729Z" fill="white"/>
<path d="M52.4412 65.3859L52.3975 65.3984L41.6412 62.4922L40.9537 54.7891H31.2568L32.61 69.9547L52.3943 75.4484L52.4412 75.4359L52.4412 65.3859Z" fill="#EBEBEB"/>
<path d="M64.6443 49.4165L63.4818 62.3509L52.71 65.2571V75.3071L72.51 69.8196L72.6568 68.1884L74.335 49.4165L64.6443 49.4165Z" fill="white"/>
<path d="M52.7193 20.6167V30.2761L29.3881 30.2761L29.1943 28.1042L28.7537 23.2073L28.5225 20.6167L52.7193 20.6167ZM52.685 40.1667V49.8261L42.0631 49.8261L41.8693 47.6542L41.4318 42.7573L41.2006 40.1667L52.685 40.1667Z" fill="#EBEBEB"/>
</svg>
