<svg width="107" height="100" viewBox="0 0 107 100" fill="none" xmlns="http://www.w3.org/2000/svg">
<path d="M18.4438 85.0031L11.4219 6.25L88.5781 6.25L81.5469 84.9906L49.9531 93.75L18.4438 85.0031Z" fill="#E44F26"/>
<path d="M50 87.0561L75.5312 79.9779L81.5375 12.6904L50 12.6904L50 87.0561Z" fill="#F1662A"/>
<path d="M50 41.8967H37.2188L36.3375 32.0061H50V22.3467L25.7812 22.3467L26.0125 24.9404L28.3844 51.5561H50V41.8967ZM50 66.9811L49.9562 66.9936L39.2 64.0904L38.5125 56.3873H28.8156L30.1688 71.5498L49.9562 77.0436L50 77.0311L50 66.9811Z" fill="#EBEBEB"/>
<path d="M49.9658 41.8967V51.5561H61.8596L60.7408 64.0842L49.9658 66.9904V77.0404L69.7689 71.5498L69.9127 69.9186L72.1814 44.4904L72.4189 41.8967H49.9658ZM49.9658 22.3467V32.0061H73.2971L73.4908 29.8373L73.9314 24.9404L74.1627 22.3467L49.9658 22.3467Z" fill="white"/>
</svg>
