<svg width="110" height="100" viewBox="0 0 110 100" fill="none" xmlns="http://www.w3.org/2000/svg">
<path d="M0.704102 0H109.089V100H0.704102V0Z" fill="#F5DE19"/>
<path d="M73.5115 78.1253C74.435 79.856 75.8698 81.3107 77.6504 82.3217C79.4311 83.3327 81.4851 83.8589 83.5758 83.8396C87.7951 83.8396 90.4931 81.8931 90.4931 79.1967C90.4931 75.9824 87.7216 74.8324 83.0765 72.9574L80.5295 71.9503C73.1748 69.061 68.2975 65.4431 68.2975 57.7931C68.2975 50.7467 74.1038 45.3789 83.212 45.3789C86.1605 45.1824 89.1064 45.7913 91.6822 47.1294C94.2581 48.4676 96.35 50.4759 97.6968 52.9039L89.7344 57.6003C89.2158 56.3964 88.3128 55.3665 87.1452 54.647C85.9775 53.9275 84.6004 53.5525 83.1965 53.5717C82.584 53.5151 81.9654 53.5769 81.3802 53.7531C80.795 53.9293 80.2559 54.216 79.7974 54.595C79.339 54.974 78.9711 55.437 78.7172 55.9544C78.4634 56.4718 78.3291 57.0323 78.3231 57.6003C78.3231 60.4181 80.2159 61.561 84.5861 63.3146L87.1332 64.3217C95.7885 67.7467 100.681 71.236 100.681 79.0824C100.681 87.5431 93.4776 92.1788 83.8042 92.1788C80.0352 92.4004 76.2771 91.6109 72.9836 89.9055C69.6901 88.2002 67.0019 85.6519 65.2433 82.5681L73.5115 78.1253ZM37.5317 78.9396C39.1303 81.5574 40.5858 83.7717 44.0851 83.7717C47.4295 83.7717 49.543 82.5646 49.543 77.8681V45.9146H59.7273V77.9931C59.7273 87.7217 53.5339 92.1503 44.5186 92.1503C41.3319 92.311 38.1671 91.5783 35.4402 90.0484C32.7133 88.5186 30.5519 86.2632 29.2402 83.5789L37.5317 78.9396Z" fill="black"/>
</svg>
