<svg width="121" height="100" viewBox="0 0 121 100" fill="none" xmlns="http://www.w3.org/2000/svg">
<path d="M97.1109 32.3789C95.9158 31.9689 94.7106 31.5891 93.4963 31.2398C93.7003 30.4065 93.8881 29.5833 94.0548 28.7745C96.7912 15.4933 95.0023 4.79378 88.8921 1.27098C83.0337 -2.10622 73.4528 1.41527 63.7767 9.83501C62.8231 10.6663 61.8907 11.5215 60.9802 12.3999C60.3708 11.8158 59.7505 11.2431 59.1199 10.6819C48.9788 1.67931 38.814 -2.11499 32.7104 1.41791C26.8573 4.80562 25.1242 14.864 27.5877 27.4508C27.8328 28.6974 28.1095 29.9376 28.4177 31.1701C26.9788 31.5789 25.5905 32.014 24.2617 32.4771C12.3722 36.6218 4.7793 43.117 4.7793 49.8543C4.7793 56.8126 12.9306 63.792 25.3141 68.024C26.3181 68.3657 27.3304 68.6823 28.3501 68.9736C28.0189 70.3011 27.7249 71.6376 27.4684 72.9815C25.1198 85.3499 26.9538 95.1705 32.7912 98.5368C38.8202 102.013 48.9393 98.4403 58.7922 89.8284C59.5911 89.1283 60.3725 88.4083 61.1355 87.6692C62.1215 88.6203 63.1337 89.5438 64.1711 90.4385C73.7156 98.6499 83.1416 101.966 88.9733 98.5903C94.9966 95.1039 96.9543 84.5539 94.4127 71.7183C94.2125 70.7128 93.988 69.7122 93.7393 68.7175C94.45 68.5069 95.1475 68.2903 95.8274 68.0648C108.701 63.8004 117.078 56.9056 117.078 49.8543C117.078 43.0925 109.24 36.5534 97.1109 32.3789ZM94.3188 63.5122C93.7047 63.7153 93.0748 63.9113 92.4326 64.1021C91.0113 59.6034 89.0934 54.8201 86.7461 49.8776C88.986 45.053 90.8301 40.3306 92.2115 35.8613C93.3603 36.1938 94.475 36.5442 95.5497 36.914C105.942 40.4911 112.28 45.7793 112.28 49.8543C112.28 54.1947 105.435 59.8293 94.3188 63.5122ZM89.7067 72.6499C90.8306 78.3254 90.9907 83.4569 90.2463 87.4688C89.5777 91.0736 88.2328 93.4767 86.5694 94.4394C83.0306 96.4876 75.4623 93.8254 67.3001 86.8026C66.3352 85.9707 65.3936 85.1122 64.4764 84.228C67.6409 80.7679 70.8033 76.7455 73.8897 72.278C79.3187 71.7964 84.4475 71.0087 89.0987 69.9337C89.3228 70.8342 89.5255 71.7398 89.7067 72.6499ZM43.0643 94.0854C39.6067 95.3061 36.8528 95.3411 35.188 94.3815C31.6458 92.339 30.1732 84.4534 32.1819 73.8762C32.4206 72.6264 32.694 71.3833 33.0017 70.1486C37.6016 71.1661 42.6932 71.8977 48.1348 72.339C51.2423 76.7104 54.4959 80.7284 57.7749 84.2468C57.0781 84.921 56.3647 85.5779 55.6355 86.217C51.2783 90.0249 46.9122 92.7267 43.0643 94.0854ZM26.8661 63.4854C21.3902 61.614 16.868 59.1819 13.7684 56.528C10.9829 54.1433 9.57698 51.7754 9.57698 49.8543C9.57698 45.7657 15.6731 40.5508 25.8409 37.0065C27.0749 36.5767 28.3663 36.171 29.7065 35.7903C31.112 40.3604 32.9552 45.139 35.1797 49.971C32.9263 54.8745 31.0567 59.7293 29.6376 64.3534C28.7068 64.0868 27.7827 63.7974 26.8661 63.4854ZM32.2959 26.5293C30.1855 15.7455 31.587 7.61089 35.1143 5.56922C38.8711 3.39466 47.1785 6.4951 55.9347 14.2688C56.5057 14.7768 57.0674 15.2952 57.6196 15.8236C54.3568 19.3267 51.1331 23.3148 48.0532 27.6604C42.7717 28.1499 37.7161 28.9359 33.068 29.989C32.7816 28.8426 32.5242 27.6887 32.2959 26.5293ZM80.7364 38.489C79.6386 36.5929 78.4999 34.7206 77.3214 32.8736C80.9044 33.3267 84.3374 33.928 87.5612 34.6631C86.5935 37.7648 85.3872 41.0074 83.9672 44.3319C82.9293 42.363 81.8521 40.4149 80.7364 38.489ZM60.9824 19.2517C63.1951 21.6486 65.4112 24.3245 67.5909 27.228C63.1692 27.0192 58.7401 27.0183 54.3182 27.2254C56.5002 24.3486 58.7352 21.6762 60.9824 19.2517ZM41.1017 38.5219C39.9999 40.4323 38.9429 42.3682 37.9314 44.328C36.5347 41.0153 35.3394 37.7578 34.3633 34.6122C37.5674 33.8955 40.9841 33.3096 44.5443 32.8648C43.3527 34.7232 42.2048 36.6096 41.1017 38.5219ZM44.6465 67.185C40.9683 66.7745 37.5002 66.2188 34.2971 65.5214C35.2885 62.3197 36.5102 58.9929 37.9371 55.6091C38.9526 57.5704 40.014 59.5075 41.1205 61.4188C42.2584 63.3837 43.4367 65.3083 44.6465 67.185ZM61.1149 80.7947C58.8409 78.342 56.573 75.6284 54.3582 72.71C56.5085 72.7942 58.7005 72.8372 60.9285 72.8372C63.2174 72.8372 65.4801 72.7859 67.7072 72.6868C65.5204 75.6578 63.3126 78.3754 61.1149 80.7947ZM84.0124 55.4363C85.5135 58.8574 86.7786 62.1666 87.7831 65.3135C84.5274 66.0565 81.0119 66.6547 77.3078 67.099C78.4948 65.2177 79.6441 63.3129 80.7553 61.3859C81.885 59.4271 82.971 57.4434 84.0124 55.4363ZM76.5998 58.9894C74.8988 61.9439 73.1021 64.8424 71.2126 67.6802C67.7899 67.9226 64.3597 68.0429 60.9285 68.0411C57.4336 68.0411 54.0344 67.9324 50.7611 67.7201C48.8223 64.8889 46.9913 61.9853 45.2721 59.0157C43.5609 56.0618 41.963 53.044 40.481 49.9688C41.9593 46.8928 43.5527 43.8736 45.258 40.9175C46.9627 37.9605 48.7786 35.0699 50.7028 32.2508C54.0423 31.9982 57.467 31.8666 60.928 31.8666C64.4049 31.8666 67.8344 31.9995 71.1731 32.2539C73.0778 35.0687 74.8826 37.9499 76.584 40.892C78.295 43.8417 79.9096 46.8462 81.4251 49.9008C79.9251 52.9866 78.3157 56.0181 76.5998 58.9894ZM86.4961 5.42624C90.2563 7.59466 91.7189 16.339 89.3562 27.8061C89.2053 28.5376 89.036 29.2828 88.8517 30.0385C84.1922 28.9631 79.1331 28.1635 73.8362 27.6666C70.7506 23.2732 67.5532 19.2789 64.3435 15.821C65.1847 15.0102 66.0459 14.2205 66.9264 13.4526C75.2171 6.23896 82.9657 3.39071 86.4961 5.42624ZM60.9285 39.828C66.4666 39.828 70.9564 44.317 70.9564 49.8543C70.9564 55.3916 66.4666 59.8806 60.9285 59.8806C55.3903 59.8806 50.9006 55.3916 50.9006 49.8543C50.9006 44.317 55.3903 39.828 60.9285 39.828Z" fill="#00D8FF"/>
</svg>
