<svg width="159" height="100" viewBox="0 0 159 100" fill="none" xmlns="http://www.w3.org/2000/svg">
<path d="M129.417 57.4863C124.744 57.5103 120.945 58.6307 117.936 60.287C116.1 57.8268 114.329 55.6352 113.726 54.0275C113.034 52.1524 112.467 51.0075 112.227 48.7667C111.987 46.526 112.549 43.3351 112.467 43.0917C112.385 42.8483 111.842 41.7034 109.142 41.6794C106.442 41.6548 104.243 42.1907 104.142 42.8969C104.04 43.6031 103.909 45.2108 103.961 46.8665C104.076 49.3026 101.225 57.9971 99.4936 62.5517C98.1635 60.7743 97.0083 59.2152 96.5406 57.9731C95.849 56.098 95.2821 54.953 95.0423 52.7123C94.8026 50.4716 95.365 47.2812 95.2822 47.0373C95.1995 46.7939 94.6572 45.649 91.9575 45.625C89.257 45.6004 87.0578 46.1363 86.9572 46.8425C86.8561 47.5492 86.9565 49.2049 86.7765 50.8126C86.5959 52.4203 83.5153 66.9366 82.6944 70.6868C82.3632 72.2048 81.9944 73.7072 81.5882 75.1929C81.5882 75.1929 81.581 75.266 81.5364 75.3877C81.4086 75.8536 81.2741 76.3164 81.1329 76.776L81.1387 76.8C80.9278 77.4582 80.6809 78.0667 80.485 78.0667C80.3379 78.0667 79.6507 76.3132 79.5473 73.9262C79.3257 68.8848 79.7839 61.0422 79.6959 60.7743C79.6611 60.628 79.7768 59.2643 77.6492 58.5576C75.57 57.8514 75.1631 59.0203 74.9913 59.0203C74.8201 59.0203 74.7959 59.4345 74.7959 59.4345C74.7959 59.4345 74.8266 50.6178 68.6296 50.6178C64.76 50.6178 60.4242 54.8313 58.6843 58.6307C56.065 60.2579 53.4493 61.8898 50.8373 63.5264C49.5844 64.3302 48.2816 65.1341 47.0653 65.8888C46.9439 65.7917 46.8171 65.6694 46.6957 65.5723C37.3031 57.608 22.0999 51.9816 20.14 41.2897C19.4321 37.3927 18.3414 27.1631 40.4382 14.7419C58.6525 4.63396 75.7305 7.43463 80.0515 13.6455C86.2295 22.5113 77.2942 38.9759 56.5536 41.3623C48.6369 42.2638 43.6321 39.1461 42.2762 37.9772C40.8593 36.7591 40.6701 36.686 40.3117 36.9299C39.7134 37.2956 40.4152 38.3914 40.8108 39.0244C41.8424 40.6802 45.1594 43.6031 49.9351 45.0405C54.1557 46.3066 63.8518 47.0133 74.3318 42.5804C86.0556 37.6116 92.8564 23.802 87.1364 12.2332C81.3751 0.49354 60.8582 -3.37893 43.8781 3.17251C33.7852 7.07005 23.2948 13.2073 16.6014 21.1961C8.6509 30.6945 9.00152 38.9513 10.487 42.4101C15.788 54.6851 34.7141 62.6739 42.9333 68.5923C42.6367 68.7872 42.3586 68.958 42.1245 69.1042C39.1201 70.7845 27.7463 77.5308 26.2137 84.6672C24.4668 92.7532 30.11 98.5504 33.112 99.3292C42.4306 101.741 50.3864 97.4055 53.5052 90.2445C56.6241 83.084 53.8194 73.78 50.5752 69.5179C50.5389 69.4693 50.5031 69.4202 50.4421 69.3716C51.2022 68.8603 51.9806 68.3244 52.7406 67.813C54.1345 66.8602 55.5573 65.9425 57.008 65.0604C56.7147 67.3257 56.7464 70.0292 57.3814 73.9262C58.1048 78.5054 61.4064 84.4478 64.4374 86.7857C65.7838 87.8095 67.0875 87.8335 67.9205 87.8335C70.8105 87.8335 71.5402 85.4465 72.312 82.6213C73.2513 79.163 73.8858 75.1443 73.8858 75.1443C73.8858 75.1443 74.4902 86.0069 79.8788 86.0069C81.838 86.0069 83.2183 83.4737 83.7927 82.183L83.7985 82.2071C83.7985 82.2071 83.8299 82.134 83.8875 81.9637C84.008 81.6472 84.0839 81.4518 84.0839 81.4518L84.0724 81.4037C84.531 80.0395 85.5578 76.9463 86.9538 71.8072C88.7554 65.1826 90.04 56.9018 90.04 56.9018C90.04 56.9018 90.8158 58.9232 92.6204 62.2843C93.6788 64.2571 95.4191 66.4247 96.8983 68.5192C96.3759 69.6155 96.0308 70.2241 96.0308 70.2241L96.0613 70.2486C95.6214 71.0765 95.1506 71.9775 94.6002 72.855C92.6846 76.0207 90.3659 79.6503 90.1741 80.6971C89.9552 81.9391 90.293 82.8406 91.4472 83.5714C92.2851 84.1073 93.5756 84.1799 94.8567 84.1073C97.2165 83.9365 98.767 83.352 99.5125 82.9869C100.701 82.5241 102.051 81.8174 103.222 80.7702C105.384 78.846 106.32 76.0939 105.309 72.4653C104.759 70.468 103.622 68.4706 102.367 66.595C102.531 66.2544 102.67 65.9134 102.834 65.5723C105.539 59.5562 107.176 52.9557 107.176 52.9557C107.176 52.9557 107.951 54.9771 109.756 58.3387C110.652 60.0436 112.098 61.8946 113.408 63.6966C110.263 66.8389 108.733 70.492 108.444 72.879C107.958 77.3119 109.633 79.3087 112.022 79.7715C113.102 79.9909 114.456 79.5036 115.424 79.0408C116.691 78.6026 118.128 77.8478 119.404 76.7269C121.566 74.8032 123.45 72.1237 122.439 68.4952C121.97 66.8389 121.141 65.2067 120.151 63.6235C123.133 62.2603 127.215 61.505 132.803 62.138C144.787 63.5018 148.812 70.7354 149.097 73.7805C149.381 76.8246 147.327 78.4809 146.641 78.9922C145.954 79.5041 145.726 79.6744 145.886 80.0395C146.111 80.5754 146.498 80.5513 147.16 80.4537C148.075 80.2834 152.698 77.9935 151.583 72.3917C150.244 65.2312 141.523 57.4132 129.417 57.4863ZM46.6631 87.6387C43.7911 91.8277 38.7802 93.4108 36.1342 92.0716C33.2936 90.6342 32.7992 84.4478 36.4946 80.0154C38.7404 77.3119 41.8655 74.8027 43.974 73.2686C44.4558 72.9276 45.1728 72.4408 46.032 71.8318C46.18 71.7341 46.2666 71.6855 46.2666 71.6855L46.7673 71.3199C50.0148 77.6525 49.6788 83.2303 46.6631 87.6387ZM70.2919 68.5923C69.7223 71.8563 68.8964 80.2103 67.0717 79.7475C65.5092 79.3578 63.0937 73.0253 63.6844 66.7658C63.9888 63.6235 65.3238 59.8728 66.2741 58.4118C67.8232 56.0734 69.9643 55.2936 70.7539 56.2442C71.7605 57.4863 70.637 66.5464 70.2919 68.5923ZM96.1704 79.6498C95.6765 79.9423 95.1845 80.1371 94.9044 79.9909C94.7099 79.8932 95.0335 79.5036 95.0335 79.5036C95.0335 79.5036 97.2055 76.3864 98.0197 74.9735C98.4842 74.1456 99.0353 73.1715 99.6071 72.0752L99.6825 72.3917C100.571 76.1184 97.5429 78.6271 96.1699 79.6498H96.1704ZM113.13 75.5825C112.644 75.29 112.485 74.3159 113.156 71.2713C113.41 70.0778 114.208 68.081 115.93 66.1568C116.36 66.9361 116.712 67.6913 116.855 68.3975C117.951 73.0984 114.989 74.8518 113.13 75.5825Z" fill="#CD6799"/>
</svg>
