<svg width="151" height="86" viewBox="0 0 151 86" fill="none" xmlns="http://www.w3.org/2000/svg">
<path d="M37.6786 28.5908C42.7024 9.53026 55.2619 0 75.3571 0C105.5 0 109.268 21.4431 124.339 25.0169C134.387 27.3995 143.179 23.8257 150.714 14.2954C145.69 33.3559 133.131 42.8862 113.036 42.8862C82.8929 42.8862 79.125 21.4431 64.0536 17.8692C54.0059 15.4867 45.2143 19.0605 37.6786 28.5908ZM0 71.477C5.02381 52.4164 17.5833 42.8862 37.6786 42.8862C67.8214 42.8862 71.5893 64.3293 86.6607 67.9031C96.7083 70.2857 105.5 66.7118 113.036 57.1816C108.012 76.2421 95.4524 85.7724 75.3571 85.7724C45.2143 85.7724 41.4464 64.3293 26.375 60.7554C16.3274 58.3729 7.53571 61.9467 0 71.477Z" fill="#44A8B3"/>
</svg>
